<svg width="36" height="36" viewBox="0 0 36 36" fill="none" xmlns="http://www.w3.org/2000/svg">
<path d="M7.506 10.4999H7.4625C7.00192 10.5287 6.54035 10.4621 6.10671 10.3042C5.67306 10.1464 5.27667 9.90072 4.94235 9.5826C4.60804 9.26449 4.34301 8.88077 4.16384 8.45549C3.98468 8.0302 3.89525 7.57251 3.90115 7.11107C3.90705 6.64962 4.00816 6.19437 4.19814 5.7738C4.38812 5.35324 4.66288 4.97643 5.00522 4.66696C5.34756 4.3575 5.7501 4.12204 6.18765 3.97534C6.62519 3.82864 7.08831 3.77385 7.548 3.81441C8.00859 3.78223 8.47086 3.84554 8.90584 4.00037C9.34082 4.1552 9.73913 4.39821 10.0758 4.71417C10.4125 5.03013 10.6803 5.41222 10.8624 5.83651C11.0445 6.26079 11.137 6.71812 11.1341 7.17982C11.1312 7.64152 11.0329 8.09765 10.8455 8.51961C10.6581 8.94158 10.3855 9.32028 10.0449 9.63198C9.70429 9.94368 9.30296 10.1817 8.86607 10.331C8.42918 10.4804 7.96615 10.5379 7.506 10.4999V10.4999Z" fill="#2D76F9"/>
<path d="M4.5271 15H10.5271V33H4.5271V15Z" fill="#2D76F9"/>
<path d="M26.2771 15C25.2661 15.0027 24.2688 15.2339 23.3597 15.6763C22.4506 16.1186 21.6532 16.7607 21.0271 17.5545V15H15.0271V33H21.0271V24.75C21.0271 23.9544 21.3432 23.1913 21.9058 22.6287C22.4684 22.0661 23.2315 21.75 24.0271 21.75C24.8227 21.75 25.5858 22.0661 26.1484 22.6287C26.711 23.1913 27.0271 23.9544 27.0271 24.75V33H33.0271V21.75C33.0271 19.9598 32.3159 18.2429 31.0501 16.977C29.7842 15.7112 28.0673 15 26.2771 15Z" fill="#2D76F9"/>
</svg>
