<svg width="56" height="56" viewBox="0 0 56 56" fill="none" xmlns="http://www.w3.org/2000/svg">
<path opacity="0.5" d="M16.3333 14C15.7145 14 15.121 13.7542 14.6834 13.3166C14.2458 12.879 14 12.2855 14 11.6667V7C14 6.38116 14.2458 5.78767 14.6834 5.35009C15.121 4.9125 15.7145 4.66667 16.3333 4.66667C16.9522 4.66667 17.5457 4.9125 17.9832 5.35009C18.4208 5.78767 18.6667 6.38116 18.6667 7V11.6667C18.6667 12.2851 18.4212 12.8782 17.9841 13.3158C17.547 13.7533 16.9541 13.9994 16.3357 14H16.3333ZM39.6667 14C39.0478 14 38.4543 13.7542 38.0167 13.3166C37.5792 12.879 37.3333 12.2855 37.3333 11.6667V7C37.3333 6.38116 37.5792 5.78767 38.0167 5.35009C38.4543 4.9125 39.0478 4.66667 39.6667 4.66667C40.2855 4.66667 40.879 4.9125 41.3166 5.35009C41.7542 5.78767 42 6.38116 42 7V11.6667C42 12.2851 41.7545 12.8782 41.3174 13.3158C40.8803 13.7533 40.2874 13.9994 39.669 14H39.6667Z" fill="#2D76F9"/>
<path d="M44.3334 9.33333H42.0001V11.6667C42.0001 12.2855 41.7543 12.879 41.3167 13.3166C40.8791 13.7542 40.2856 14 39.6668 14C39.0479 14 38.4544 13.7542 38.0168 13.3166C37.5792 12.879 37.3334 12.2855 37.3334 11.6667V9.33333H18.6667V11.6667C18.6667 12.2855 18.4209 12.879 17.9833 13.3166C17.5457 13.7542 16.9523 14 16.3334 14C15.7146 14 15.1211 13.7542 14.6835 13.3166C14.2459 12.879 14.0001 12.2855 14.0001 11.6667V9.33333H11.6667C9.81023 9.33333 8.02976 10.0708 6.717 11.3836C5.40425 12.6963 4.66675 14.4768 4.66675 16.3333V21H51.3334V16.3333C51.3334 14.4768 50.5959 12.6963 49.2832 11.3836C47.9704 10.0708 46.1899 9.33333 44.3334 9.33333V9.33333Z" fill="#2D76F9"/>
<path d="M16.3333 32.6667C17.622 32.6667 18.6667 31.622 18.6667 30.3333C18.6667 29.0447 17.622 28 16.3333 28C15.0447 28 14 29.0447 14 30.3333C14 31.622 15.0447 32.6667 16.3333 32.6667Z" fill="#2D76F9"/>
<path d="M16.3333 42C17.622 42 18.6667 40.9553 18.6667 39.6667C18.6667 38.378 17.622 37.3333 16.3333 37.3333C15.0447 37.3333 14 38.378 14 39.6667C14 40.9553 15.0447 42 16.3333 42Z" fill="#2D76F9"/>
<path d="M28.0001 32.6667C29.2887 32.6667 30.3334 31.622 30.3334 30.3333C30.3334 29.0447 29.2887 28 28.0001 28C26.7114 28 25.6667 29.0447 25.6667 30.3333C25.6667 31.622 26.7114 32.6667 28.0001 32.6667Z" fill="#2D76F9"/>
<path d="M28.0001 42C29.2887 42 30.3334 40.9553 30.3334 39.6667C30.3334 38.378 29.2887 37.3333 28.0001 37.3333C26.7114 37.3333 25.6667 38.378 25.6667 39.6667C25.6667 40.9553 26.7114 42 28.0001 42Z" fill="#2D76F9"/>
<path d="M39.6666 32.6667C40.9552 32.6667 41.9999 31.622 41.9999 30.3333C41.9999 29.0447 40.9552 28 39.6666 28C38.3779 28 37.3333 29.0447 37.3333 30.3333C37.3333 31.622 38.3779 32.6667 39.6666 32.6667Z" fill="#2D76F9"/>
<path d="M39.6666 42C40.9552 42 41.9999 40.9553 41.9999 39.6667C41.9999 38.378 40.9552 37.3333 39.6666 37.3333C38.3779 37.3333 37.3333 38.378 37.3333 39.6667C37.3333 40.9553 38.3779 42 39.6666 42Z" fill="#2D76F9"/>
<path opacity="0.5" d="M4.66675 21V44.3333C4.66675 46.1899 5.40425 47.9703 6.717 49.2831C8.02976 50.5958 9.81023 51.3333 11.6667 51.3333H44.3334C46.1899 51.3333 47.9704 50.5958 49.2832 49.2831C50.5959 47.9703 51.3334 46.1899 51.3334 44.3333V21H4.66675ZM16.3334 42C15.7146 42 15.1211 41.7542 14.6835 41.3166C14.2459 40.879 14.0001 40.2855 14.0001 39.6667C14.0001 39.0478 14.2459 38.4543 14.6835 38.0168C15.1211 37.5792 15.7146 37.3333 16.3334 37.3333C16.9523 37.3333 17.5457 37.5792 17.9833 38.0168C18.4209 38.4543 18.6667 39.0478 18.6667 39.6667C18.6667 40.2855 18.4209 40.879 17.9833 41.3166C17.5457 41.7542 16.9523 42 16.3334 42ZM16.3334 32.6667C15.7146 32.6667 15.1211 32.4208 14.6835 31.9832C14.2459 31.5457 14.0001 30.9522 14.0001 30.3333C14.0001 29.7145 14.2459 29.121 14.6835 28.6834C15.1211 28.2458 15.7146 28 16.3334 28C16.9523 28 17.5457 28.2458 17.9833 28.6834C18.4209 29.121 18.6667 29.7145 18.6667 30.3333C18.6667 30.9522 18.4209 31.5457 17.9833 31.9832C17.5457 32.4208 16.9523 32.6667 16.3334 32.6667ZM28.0001 42C27.3812 42 26.7878 41.7542 26.3502 41.3166C25.9126 40.879 25.6667 40.2855 25.6667 39.6667C25.6667 39.0478 25.9126 38.4543 26.3502 38.0168C26.7878 37.5792 27.3812 37.3333 28.0001 37.3333C28.6189 37.3333 29.2124 37.5792 29.65 38.0168C30.0876 38.4543 30.3334 39.0478 30.3334 39.6667C30.3334 40.2855 30.0876 40.879 29.65 41.3166C29.2124 41.7542 28.6189 42 28.0001 42ZM28.0001 32.6667C27.3812 32.6667 26.7878 32.4208 26.3502 31.9832C25.9126 31.5457 25.6667 30.9522 25.6667 30.3333C25.6667 29.7145 25.9126 29.121 26.3502 28.6834C26.7878 28.2458 27.3812 28 28.0001 28C28.6189 28 29.2124 28.2458 29.65 28.6834C30.0876 29.121 30.3334 29.7145 30.3334 30.3333C30.3334 30.9522 30.0876 31.5457 29.65 31.9832C29.2124 32.4208 28.6189 32.6667 28.0001 32.6667ZM39.6668 42C39.0479 42 38.4544 41.7542 38.0168 41.3166C37.5792 40.879 37.3334 40.2855 37.3334 39.6667C37.3334 39.0478 37.5792 38.4543 38.0168 38.0168C38.4544 37.5792 39.0479 37.3333 39.6668 37.3333C40.2856 37.3333 40.8791 37.5792 41.3167 38.0168C41.7543 38.4543 42.0001 39.0478 42.0001 39.6667C42.0001 40.2855 41.7543 40.879 41.3167 41.3166C40.8791 41.7542 40.2856 42 39.6668 42ZM39.6668 32.6667C39.0479 32.6667 38.4544 32.4208 38.0168 31.9832C37.5792 31.5457 37.3334 30.9522 37.3334 30.3333C37.3334 29.7145 37.5792 29.121 38.0168 28.6834C38.4544 28.2458 39.0479 28 39.6668 28C40.2856 28 40.8791 28.2458 41.3167 28.6834C41.7543 29.121 42.0001 29.7145 42.0001 30.3333C42.0001 30.9522 41.7543 31.5457 41.3167 31.9832C40.8791 32.4208 40.2856 32.6667 39.6668 32.6667Z" fill="#2D76F9"/>
</svg>
